<svg xmlns="http://www.w3.org/2000/svg" width="400" height="400" viewBox="0 0 400 400">
  <rect width="400" height="400" fill="hsl(240,5%,94%)"/>
  <rect x="60" y="120" width="280" height="160" rx="8" fill="hsl(240,6%,86%)"/>
  <rect x="80" y="140" width="30" height="120" rx="4" fill="hsl(240,6%,78%)"/>
  <rect x="120" y="140" width="30" height="120" rx="4" fill="hsl(240,6%,78%)"/>
  <rect x="160" y="140" width="30" height="120" rx="4" fill="hsl(240,6%,78%)"/>
  <rect x="200" y="140" width="30" height="120" rx="4" fill="hsl(240,6%,78%)"/>
  <rect x="240" y="140" width="30" height="120" rx="4" fill="hsl(240,6%,78%)"/>
  <rect x="280" y="140" width="30" height="120" rx="4" fill="hsl(240,6%,78%)"/>
  <rect x="96" y="140" width="18" height="74" rx="3" fill="hsl(240,10%,20%)"/>
  <rect x="136" y="140" width="18" height="74" rx="3" fill="hsl(240,10%,20%)"/>
  <rect x="216" y="140" width="18" height="74" rx="3" fill="hsl(240,10%,20%)"/>
  <rect x="256" y="140" width="18" height="74" rx="3" fill="hsl(240,10%,20%)"/>
  <rect x="296" y="140" width="18" height="74" rx="3" fill="hsl(240,10%,20%)"/>
</svg>
